<?xml version="1.0" encoding="utf-8"?>
<svg width="964px" height="745px" viewBox="0 0 964 745" version="1.1" xmlns:xlink="http://www.w3.org/1999/xlink" xmlns="http://www.w3.org/2000/svg">
    <defs>
        <linearGradient x1="0.7425516" y1="0.114668824" x2="0.11900863" y2="0.97463495" id="gradient_1">
            <stop offset="0" stop-color="#1F42A5" />
            <stop offset="1" stop-color="#040B2D" />
        </linearGradient>
        <linearGradient x1="0.87137747" y1="0.8339868" x2="0.60041624" y2="0.4731845" id="gradient_2">
            <stop offset="0" stop-color="#FFFFFF" stop-opacity="0" />
            <stop offset="1" stop-color="#FFFFFF" />
        </linearGradient>
        <linearGradient x1="0.064622566" y1="0.77822614" x2="0.34299815" y2="-0.12664054" id="gradient_3">
            <stop offset="0" stop-color="#FFFFFF" stop-opacity="0" />
            <stop offset="1" stop-color="#FFFFFF" />
        </linearGradient>
    </defs>
    <g id="Bg" transform="translate(0.5 0.5)">
        <path d="M548.679 0.60771C384.679 10.6077 526.343 164.64 254.679 152.608C-16.9839 140.576 -74.0588 449.932 96.6794 554.608C267.418 659.284 724.176 686.894 871.701 395.077C1019.23 103.26 712.679 -9.39229 548.679 0.60771Z" transform="translate(98.32061 76.39229)" id="Path-2" fill="url(#gradient_1)" fill-rule="evenodd" stroke="none" />
        <path d="M191.999 0L192.001 0Q196.714 0 201.422 0.231271Q206.13 0.462542 210.82 0.924528Q215.511 1.38651 220.173 2.0781Q224.835 2.76968 229.458 3.68921Q234.081 4.60873 238.653 5.75397Q243.225 6.89921 247.735 8.26741Q252.246 9.63561 256.683 11.2235Q261.121 12.8113 265.476 14.6151Q269.83 16.4188 274.091 18.434Q278.352 20.4492 282.509 22.671Q286.665 24.8928 290.708 27.316Q294.751 29.7391 298.67 32.3577Q302.589 34.9762 306.375 37.784Q310.16 40.5917 313.804 43.5818Q317.447 46.5718 320.94 49.7371Q324.432 52.9024 327.765 56.2352Q331.098 59.568 334.263 63.0603Q337.428 66.5527 340.418 70.1961Q343.408 73.8396 346.216 77.6253Q349.024 81.4111 351.642 85.3301Q354.261 89.249 356.684 93.2918Q359.107 97.3345 361.329 101.491Q363.551 105.648 365.566 109.909Q367.581 114.17 369.385 118.524Q371.189 122.879 372.776 127.316Q374.364 131.754 375.733 136.265Q377.101 140.775 378.246 145.347Q379.391 149.919 380.311 154.542Q381.23 159.165 381.922 163.827Q382.613 168.489 383.075 173.18Q383.537 177.87 383.769 182.578Q384 187.286 384 191.999L384 192.001Q384 196.714 383.769 201.422Q383.537 206.13 383.075 210.82Q382.613 215.511 381.922 220.173Q381.23 224.835 380.311 229.458Q379.391 234.081 378.246 238.653Q377.101 243.225 375.733 247.735Q374.364 252.246 372.776 256.683Q371.189 261.121 369.385 265.476Q367.581 269.83 365.566 274.091Q363.551 278.352 361.329 282.509Q359.107 286.665 356.684 290.708Q354.261 294.751 351.642 298.67Q349.024 302.589 346.216 306.375Q343.408 310.16 340.418 313.804Q337.428 317.447 334.263 320.94Q331.098 324.432 327.765 327.765Q324.432 331.098 320.94 334.263Q317.447 337.428 313.804 340.418Q310.16 343.408 306.375 346.216Q302.589 349.024 298.67 351.642Q294.751 354.261 290.708 356.684Q286.665 359.107 282.509 361.329Q278.352 363.551 274.091 365.566Q269.83 367.581 265.476 369.385Q261.121 371.189 256.683 372.776Q252.246 374.364 247.735 375.733Q243.225 377.101 238.653 378.246Q234.081 379.391 229.458 380.311Q224.835 381.23 220.173 381.922Q215.511 382.613 210.82 383.075Q206.13 383.537 201.422 383.769Q196.714 384 192.001 384L191.999 384Q187.286 384 182.578 383.769Q177.87 383.537 173.18 383.075Q168.489 382.613 163.827 381.922Q159.165 381.23 154.542 380.311Q149.919 379.391 145.347 378.246Q140.775 377.101 136.265 375.733Q131.754 374.364 127.316 372.776Q122.879 371.189 118.524 369.385Q114.17 367.581 109.909 365.566Q105.648 363.551 101.491 361.329Q97.3345 359.107 93.2918 356.684Q89.249 354.261 85.3301 351.642Q81.4111 349.024 77.6253 346.216Q73.8396 343.408 70.1961 340.418Q66.5527 337.428 63.0603 334.263Q59.568 331.098 56.2352 327.765Q52.9024 324.432 49.7371 320.94Q46.5718 317.447 43.5818 313.804Q40.5917 310.16 37.7839 306.375Q34.9762 302.589 32.3577 298.67Q29.7391 294.751 27.316 290.708Q24.8928 286.665 22.671 282.509Q20.4492 278.352 18.434 274.091Q16.4188 269.83 14.6151 265.476Q12.8113 261.121 11.2235 256.683Q9.63561 252.246 8.26741 247.735Q6.89921 243.225 5.75397 238.653Q4.60873 234.081 3.68921 229.458Q2.76968 224.835 2.0781 220.173Q1.38651 215.511 0.924528 210.82Q0.462542 206.13 0.231271 201.422Q0 196.714 0 192.001L0 191.999Q0 187.286 0.231271 182.578Q0.462542 177.87 0.924528 173.18Q1.38651 168.489 2.0781 163.827Q2.76968 159.165 3.68921 154.542Q4.60873 149.919 5.75397 145.347Q6.89921 140.775 8.26741 136.265Q9.63561 131.754 11.2235 127.316Q12.8113 122.879 14.6151 118.524Q16.4188 114.17 18.434 109.909Q20.4492 105.648 22.671 101.491Q24.8928 97.3345 27.316 93.2918Q29.7391 89.249 32.3577 85.3301Q34.9762 81.4111 37.784 77.6253Q40.5917 73.8396 43.5818 70.1961Q46.5718 66.5527 49.7371 63.0603Q52.9024 59.568 56.2352 56.2352Q59.568 52.9024 63.0603 49.7371Q66.5527 46.5718 70.1961 43.5818Q73.8396 40.5917 77.6253 37.7839Q81.4111 34.9762 85.3301 32.3577Q89.249 29.7391 93.2918 27.316Q97.3345 24.8928 101.491 22.671Q105.648 20.4492 109.909 18.434Q114.17 16.4188 118.524 14.6151Q122.879 12.8113 127.316 11.2235Q131.754 9.63561 136.265 8.26741Q140.775 6.89921 145.347 5.75397Q149.919 4.60873 154.542 3.68921Q159.165 2.76968 163.827 2.0781Q168.489 1.38651 173.18 0.924528Q177.87 0.462542 182.578 0.231271Q187.286 0 191.999 0L191.999 0Z" transform="translate(0 360)" id="Rectangle-5" fill="url(#gradient_2)" fill-opacity="0.4127604" style="mix-blend-mode: soft-light;" fill-rule="evenodd" stroke="none" />
        <path d="M191.999 0L192.001 0Q196.714 0 201.422 0.231271Q206.13 0.462542 210.82 0.924528Q215.511 1.38651 220.173 2.0781Q224.835 2.76968 229.458 3.68921Q234.081 4.60873 238.653 5.75397Q243.225 6.89921 247.735 8.26741Q252.246 9.63561 256.683 11.2235Q261.121 12.8113 265.476 14.6151Q269.83 16.4188 274.091 18.434Q278.352 20.4492 282.509 22.671Q286.665 24.8928 290.708 27.316Q294.751 29.7391 298.67 32.3577Q302.589 34.9762 306.375 37.784Q310.16 40.5917 313.804 43.5818Q317.447 46.5718 320.94 49.7371Q324.432 52.9024 327.765 56.2352Q331.098 59.568 334.263 63.0603Q337.428 66.5527 340.418 70.1961Q343.408 73.8396 346.216 77.6253Q349.024 81.4111 351.642 85.3301Q354.261 89.249 356.684 93.2918Q359.107 97.3345 361.329 101.491Q363.551 105.648 365.566 109.909Q367.581 114.17 369.385 118.524Q371.189 122.879 372.776 127.316Q374.364 131.754 375.733 136.265Q377.101 140.775 378.246 145.347Q379.391 149.919 380.311 154.542Q381.23 159.165 381.922 163.827Q382.613 168.489 383.075 173.18Q383.537 177.87 383.769 182.578Q384 187.286 384 191.999L384 192.001Q384 196.714 383.769 201.422Q383.537 206.13 383.075 210.82Q382.613 215.511 381.922 220.173Q381.23 224.835 380.311 229.458Q379.391 234.081 378.246 238.653Q377.101 243.225 375.733 247.735Q374.364 252.246 372.776 256.683Q371.189 261.121 369.385 265.476Q367.581 269.83 365.566 274.091Q363.551 278.352 361.329 282.509Q359.107 286.665 356.684 290.708Q354.261 294.751 351.642 298.67Q349.024 302.589 346.216 306.375Q343.408 310.16 340.418 313.804Q337.428 317.447 334.263 320.94Q331.098 324.432 327.765 327.765Q324.432 331.098 320.94 334.263Q317.447 337.428 313.804 340.418Q310.16 343.408 306.375 346.216Q302.589 349.024 298.67 351.642Q294.751 354.261 290.708 356.684Q286.665 359.107 282.509 361.329Q278.352 363.551 274.091 365.566Q269.83 367.581 265.476 369.385Q261.121 371.189 256.683 372.776Q252.246 374.364 247.735 375.733Q243.225 377.101 238.653 378.246Q234.081 379.391 229.458 380.311Q224.835 381.23 220.173 381.922Q215.511 382.613 210.82 383.075Q206.13 383.537 201.422 383.769Q196.714 384 192.001 384L191.999 384Q187.286 384 182.578 383.769Q177.87 383.537 173.18 383.075Q168.489 382.613 163.827 381.922Q159.165 381.23 154.542 380.311Q149.919 379.391 145.347 378.246Q140.775 377.101 136.265 375.733Q131.754 374.364 127.316 372.776Q122.879 371.189 118.524 369.385Q114.17 367.581 109.909 365.566Q105.648 363.551 101.491 361.329Q97.3345 359.107 93.2918 356.684Q89.249 354.261 85.3301 351.642Q81.4111 349.024 77.6253 346.216Q73.8396 343.408 70.1961 340.418Q66.5527 337.428 63.0603 334.263Q59.568 331.098 56.2352 327.765Q52.9024 324.432 49.7371 320.94Q46.5718 317.447 43.5818 313.804Q40.5917 310.16 37.7839 306.375Q34.9762 302.589 32.3577 298.67Q29.7391 294.751 27.316 290.708Q24.8928 286.665 22.671 282.509Q20.4492 278.352 18.434 274.091Q16.4188 269.83 14.6151 265.476Q12.8113 261.121 11.2235 256.683Q9.63561 252.246 8.26741 247.735Q6.89921 243.225 5.75397 238.653Q4.60873 234.081 3.68921 229.458Q2.76968 224.835 2.0781 220.173Q1.38651 215.511 0.924528 210.82Q0.462542 206.13 0.231271 201.422Q0 196.714 0 192.001L0 191.999Q0 187.286 0.231271 182.578Q0.462542 177.87 0.924528 173.18Q1.38651 168.489 2.0781 163.827Q2.76968 159.165 3.68921 154.542Q4.60873 149.919 5.75397 145.347Q6.89921 140.775 8.26741 136.265Q9.63561 131.754 11.2235 127.316Q12.8113 122.879 14.6151 118.524Q16.4188 114.17 18.434 109.909Q20.4492 105.648 22.671 101.491Q24.8928 97.3345 27.316 93.2918Q29.7391 89.249 32.3577 85.3301Q34.9762 81.4111 37.784 77.6253Q40.5917 73.8396 43.5818 70.1961Q46.5718 66.5527 49.7371 63.0603Q52.9024 59.568 56.2352 56.2352Q59.568 52.9024 63.0603 49.7371Q66.5527 46.5718 70.1961 43.5818Q73.8396 40.5917 77.6253 37.7839Q81.4111 34.9762 85.3301 32.3577Q89.249 29.7391 93.2918 27.316Q97.3345 24.8928 101.491 22.671Q105.648 20.4492 109.909 18.434Q114.17 16.4188 118.524 14.6151Q122.879 12.8113 127.316 11.2235Q131.754 9.63561 136.265 8.26741Q140.775 6.89921 145.347 5.75397Q149.919 4.60873 154.542 3.68921Q159.165 2.76968 163.827 2.0781Q168.489 1.38651 173.18 0.924528Q177.87 0.462542 182.578 0.231271Q187.286 0 191.999 0L191.999 0Z" transform="translate(719 0)" id="Rectangle-5" fill="url(#gradient_3)" fill-opacity="0.4127604" style="mix-blend-mode: soft-light;" fill-rule="evenodd" stroke="none" />
    </g>
</svg>